<mxfile host="app.diagrams.net" agent="Mozilla/5.0 (Windows NT 10.0; Win64; x64) AppleWebKit/537.36 (KHTML, like Gecko) Chrome/134.0.0.0 Safari/537.36" version="26.1.0">
  <diagram id="prtHgNgQTEPvFCAcTncT" name="Page-1">
    <mxGraphModel dx="1596" dy="757" grid="1" gridSize="10" guides="1" tooltips="1" connect="1" arrows="1" fold="1" page="1" pageScale="1" pageWidth="827" pageHeight="1169" math="0" shadow="0">
      <root>
        <mxCell id="0" />
        <mxCell id="1" parent="0" />
        <mxCell id="dNxyNK7c78bLwvsdeMH5-19" value="What are the social implications of AI-driven fraud detection" style="swimlane;html=1;childLayout=stackLayout;resizeParent=1;resizeParentMax=0;horizontal=0;startSize=20;horizontalStack=0;" parent="1" vertex="1">
          <mxGeometry x="120" y="120" width="430" height="710" as="geometry" />
        </mxCell>
        <mxCell id="dNxyNK7c78bLwvsdeMH5-20" value="DEI &amp;amp; Human Rights" style="swimlane;html=1;startSize=20;horizontal=0;" parent="dNxyNK7c78bLwvsdeMH5-19" vertex="1">
          <mxGeometry x="20" width="410" height="140" as="geometry" />
        </mxCell>
        <mxCell id="2Log5qRWWk-23_1ZPlTG-42" style="edgeStyle=orthogonalEdgeStyle;rounded=0;orthogonalLoop=1;jettySize=auto;html=1;exitX=1;exitY=0.5;exitDx=0;exitDy=0;entryX=0;entryY=0.5;entryDx=0;entryDy=0;" edge="1" parent="dNxyNK7c78bLwvsdeMH5-20" source="2Log5qRWWk-23_1ZPlTG-34" target="2Log5qRWWk-23_1ZPlTG-36">
          <mxGeometry relative="1" as="geometry" />
        </mxCell>
        <mxCell id="2Log5qRWWk-23_1ZPlTG-34" value="Financial inclusion for marginalized groups" style="whiteSpace=wrap;html=1;" vertex="1" parent="dNxyNK7c78bLwvsdeMH5-20">
          <mxGeometry x="40" y="10" width="140" height="40" as="geometry" />
        </mxCell>
        <mxCell id="2Log5qRWWk-23_1ZPlTG-36" value="Adoption of Responsible AI (RAI) principles" style="whiteSpace=wrap;html=1;" vertex="1" parent="dNxyNK7c78bLwvsdeMH5-20">
          <mxGeometry x="230" y="40" width="140" height="40" as="geometry" />
        </mxCell>
        <mxCell id="2Log5qRWWk-23_1ZPlTG-43" style="edgeStyle=orthogonalEdgeStyle;rounded=0;orthogonalLoop=1;jettySize=auto;html=1;exitX=1;exitY=0.5;exitDx=0;exitDy=0;entryX=0;entryY=0.5;entryDx=0;entryDy=0;" edge="1" parent="dNxyNK7c78bLwvsdeMH5-20" source="2Log5qRWWk-23_1ZPlTG-40" target="2Log5qRWWk-23_1ZPlTG-36">
          <mxGeometry relative="1" as="geometry" />
        </mxCell>
        <mxCell id="2Log5qRWWk-23_1ZPlTG-40" value="Alignment with social responsibility in marketing" style="whiteSpace=wrap;html=1;" vertex="1" parent="dNxyNK7c78bLwvsdeMH5-20">
          <mxGeometry x="40" y="70" width="140" height="40" as="geometry" />
        </mxCell>
        <mxCell id="dNxyNK7c78bLwvsdeMH5-22" value="Labour Management" style="swimlane;html=1;startSize=20;horizontal=0;" parent="dNxyNK7c78bLwvsdeMH5-19" vertex="1">
          <mxGeometry x="20" y="140" width="410" height="130" as="geometry">
            <mxRectangle x="20" y="240" width="430" height="30" as="alternateBounds" />
          </mxGeometry>
        </mxCell>
        <mxCell id="2Log5qRWWk-23_1ZPlTG-54" style="edgeStyle=orthogonalEdgeStyle;rounded=0;orthogonalLoop=1;jettySize=auto;html=1;exitX=1;exitY=0.5;exitDx=0;exitDy=0;entryX=0;entryY=0.5;entryDx=0;entryDy=0;" edge="1" parent="dNxyNK7c78bLwvsdeMH5-22" source="2Log5qRWWk-23_1ZPlTG-47" target="2Log5qRWWk-23_1ZPlTG-51">
          <mxGeometry relative="1" as="geometry" />
        </mxCell>
        <mxCell id="2Log5qRWWk-23_1ZPlTG-47" value="Workflow efficiency" style="whiteSpace=wrap;html=1;" vertex="1" parent="dNxyNK7c78bLwvsdeMH5-22">
          <mxGeometry x="40" y="10" width="140" height="40" as="geometry" />
        </mxCell>
        <mxCell id="2Log5qRWWk-23_1ZPlTG-55" style="edgeStyle=orthogonalEdgeStyle;rounded=0;orthogonalLoop=1;jettySize=auto;html=1;exitX=1;exitY=0.5;exitDx=0;exitDy=0;entryX=0;entryY=0.5;entryDx=0;entryDy=0;" edge="1" parent="dNxyNK7c78bLwvsdeMH5-22" source="2Log5qRWWk-23_1ZPlTG-48" target="2Log5qRWWk-23_1ZPlTG-51">
          <mxGeometry relative="1" as="geometry" />
        </mxCell>
        <mxCell id="2Log5qRWWk-23_1ZPlTG-48" value="Job displacement" style="whiteSpace=wrap;html=1;" vertex="1" parent="dNxyNK7c78bLwvsdeMH5-22">
          <mxGeometry x="40" y="70" width="140" height="40" as="geometry" />
        </mxCell>
        <mxCell id="2Log5qRWWk-23_1ZPlTG-51" value="Reskilling/upskilling needs" style="whiteSpace=wrap;html=1;" vertex="1" parent="dNxyNK7c78bLwvsdeMH5-22">
          <mxGeometry x="230" y="40" width="140" height="40" as="geometry" />
        </mxCell>
        <mxCell id="2Log5qRWWk-23_1ZPlTG-21" value="Customer and Community" style="swimlane;html=1;startSize=20;horizontal=0;" vertex="1" parent="dNxyNK7c78bLwvsdeMH5-19">
          <mxGeometry x="20" y="270" width="410" height="150" as="geometry">
            <mxRectangle x="20" y="240" width="430" height="30" as="alternateBounds" />
          </mxGeometry>
        </mxCell>
        <mxCell id="2Log5qRWWk-23_1ZPlTG-61" style="edgeStyle=orthogonalEdgeStyle;rounded=0;orthogonalLoop=1;jettySize=auto;html=1;exitX=1;exitY=0.5;exitDx=0;exitDy=0;entryX=0;entryY=0.5;entryDx=0;entryDy=0;" edge="1" parent="2Log5qRWWk-23_1ZPlTG-21" source="2Log5qRWWk-23_1ZPlTG-52" target="2Log5qRWWk-23_1ZPlTG-60">
          <mxGeometry relative="1" as="geometry" />
        </mxCell>
        <mxCell id="2Log5qRWWk-23_1ZPlTG-52" value="Personalized services through AI chatbots" style="whiteSpace=wrap;html=1;" vertex="1" parent="2Log5qRWWk-23_1ZPlTG-21">
          <mxGeometry x="40" y="20" width="140" height="40" as="geometry" />
        </mxCell>
        <mxCell id="2Log5qRWWk-23_1ZPlTG-63" style="edgeStyle=orthogonalEdgeStyle;rounded=0;orthogonalLoop=1;jettySize=auto;html=1;exitX=1;exitY=0.5;exitDx=0;exitDy=0;entryX=0;entryY=0.5;entryDx=0;entryDy=0;" edge="1" parent="2Log5qRWWk-23_1ZPlTG-21" source="2Log5qRWWk-23_1ZPlTG-53" target="2Log5qRWWk-23_1ZPlTG-60">
          <mxGeometry relative="1" as="geometry" />
        </mxCell>
        <mxCell id="2Log5qRWWk-23_1ZPlTG-53" value="entrenching social divides" style="whiteSpace=wrap;html=1;" vertex="1" parent="2Log5qRWWk-23_1ZPlTG-21">
          <mxGeometry x="40" y="80" width="140" height="40" as="geometry" />
        </mxCell>
        <mxCell id="2Log5qRWWk-23_1ZPlTG-60" value="Bias Audits and Algorithmic Transparency" style="whiteSpace=wrap;html=1;" vertex="1" parent="2Log5qRWWk-23_1ZPlTG-21">
          <mxGeometry x="230" y="50" width="140" height="40" as="geometry" />
        </mxCell>
        <mxCell id="2Log5qRWWk-23_1ZPlTG-25" value="Data Privacy and Cybersecurity" style="swimlane;html=1;startSize=20;horizontal=0;" vertex="1" parent="dNxyNK7c78bLwvsdeMH5-19">
          <mxGeometry x="20" y="420" width="410" height="190" as="geometry">
            <mxRectangle x="20" y="420" width="410" height="30" as="alternateBounds" />
          </mxGeometry>
        </mxCell>
        <mxCell id="2Log5qRWWk-23_1ZPlTG-68" style="edgeStyle=orthogonalEdgeStyle;rounded=0;orthogonalLoop=1;jettySize=auto;html=1;exitX=1;exitY=0.5;exitDx=0;exitDy=0;entryX=0;entryY=0.5;entryDx=0;entryDy=0;" edge="1" parent="2Log5qRWWk-23_1ZPlTG-25" source="2Log5qRWWk-23_1ZPlTG-59" target="2Log5qRWWk-23_1ZPlTG-56">
          <mxGeometry relative="1" as="geometry" />
        </mxCell>
        <mxCell id="2Log5qRWWk-23_1ZPlTG-59" value="Privacy risks from extensive data use" style="whiteSpace=wrap;html=1;" vertex="1" parent="2Log5qRWWk-23_1ZPlTG-25">
          <mxGeometry x="45" y="17.5" width="140" height="40" as="geometry" />
        </mxCell>
        <mxCell id="2Log5qRWWk-23_1ZPlTG-69" style="edgeStyle=orthogonalEdgeStyle;rounded=0;orthogonalLoop=1;jettySize=auto;html=1;exitX=1;exitY=0.5;exitDx=0;exitDy=0;" edge="1" parent="2Log5qRWWk-23_1ZPlTG-25" source="2Log5qRWWk-23_1ZPlTG-58">
          <mxGeometry relative="1" as="geometry">
            <mxPoint x="225" y="92.5" as="targetPoint" />
          </mxGeometry>
        </mxCell>
        <mxCell id="2Log5qRWWk-23_1ZPlTG-58" value="Data monopolization risks" style="whiteSpace=wrap;html=1;" vertex="1" parent="2Log5qRWWk-23_1ZPlTG-25">
          <mxGeometry x="45" y="72.5" width="140" height="40" as="geometry" />
        </mxCell>
        <mxCell id="2Log5qRWWk-23_1ZPlTG-70" style="edgeStyle=orthogonalEdgeStyle;rounded=0;orthogonalLoop=1;jettySize=auto;html=1;exitX=1;exitY=0.5;exitDx=0;exitDy=0;entryX=0;entryY=0.5;entryDx=0;entryDy=0;" edge="1" parent="2Log5qRWWk-23_1ZPlTG-25" source="2Log5qRWWk-23_1ZPlTG-57" target="2Log5qRWWk-23_1ZPlTG-56">
          <mxGeometry relative="1" as="geometry" />
        </mxCell>
        <mxCell id="2Log5qRWWk-23_1ZPlTG-57" value="Compliance challenges" style="whiteSpace=wrap;html=1;" vertex="1" parent="2Log5qRWWk-23_1ZPlTG-25">
          <mxGeometry x="45" y="132.5" width="140" height="40" as="geometry" />
        </mxCell>
        <mxCell id="2Log5qRWWk-23_1ZPlTG-56" value="Recommended solutions: encryption, XAI, GDPR" style="whiteSpace=wrap;html=1;" vertex="1" parent="2Log5qRWWk-23_1ZPlTG-25">
          <mxGeometry x="225" y="72.5" width="140" height="40" as="geometry" />
        </mxCell>
        <mxCell id="2Log5qRWWk-23_1ZPlTG-29" value="Health and Safety" style="swimlane;html=1;startSize=20;horizontal=0;" vertex="1" parent="dNxyNK7c78bLwvsdeMH5-19">
          <mxGeometry x="20" y="610" width="410" height="100" as="geometry">
            <mxRectangle x="20" y="240" width="430" height="30" as="alternateBounds" />
          </mxGeometry>
        </mxCell>
        <mxCell id="2Log5qRWWk-23_1ZPlTG-67" value="Lack of empirical research" style="whiteSpace=wrap;html=1;" vertex="1" parent="2Log5qRWWk-23_1ZPlTG-29">
          <mxGeometry x="45" y="20" width="140" height="40" as="geometry" />
        </mxCell>
      </root>
    </mxGraphModel>
  </diagram>
</mxfile>
